HIERARCHY
ROOT Model
{
	OFFSET 0 0 0
	CHANNELS 6 Xposition Yposition Zposition Zrotation Xrotation Yrotation
	JOINT Model1
	{
		OFFSET 0 -2.25479 2.99384
		CHANNELS 3 Zrotation Xrotation Yrotation
		JOINT Model2
		{
			OFFSET 12.111 0 0
			CHANNELS 3 Zrotation Xrotation Yrotation
			JOINT Model3
			{
				OFFSET 11.5502 0 0
				CHANNELS 3 Zrotation Xrotation Yrotation
				JOINT Model4
				{
					OFFSET 11.781 0 0
					CHANNELS 3 Zrotation Xrotation Yrotation
					JOINT Model5
					{
						OFFSET 20.0601 0 0
						CHANNELS 3 Zrotation Xrotation Yrotation
						JOINT Model6
						{
							OFFSET 11.1962 0 0
							CHANNELS 3 Zrotation Xrotation Yrotation
							End Site
							{
								OFFSET 0 0 0
							}
						}
					}
					JOINT Model7
					{
						OFFSET 10.8223 0.417534 3.51114
						CHANNELS 3 Zrotation Xrotation Yrotation
						JOINT Model8
						{
							OFFSET -6.07944 0 0
							CHANNELS 3 Zrotation Xrotation Yrotation
							JOINT Model9
							{
								OFFSET -0.277405 10.39 -0.051239
								CHANNELS 3 Zrotation Xrotation Yrotation
								JOINT Model10
								{
									OFFSET -3.43909 -0.282043 1.86679
									CHANNELS 3 Zrotation Xrotation Yrotation
									JOINT Model11
									{
										OFFSET 13.0269 0 0
										CHANNELS 3 Zrotation Xrotation Yrotation
										JOINT Model12
										{
											OFFSET 10.8866 0 0
											CHANNELS 3 Zrotation Xrotation Yrotation
											JOINT Model13
											{
												OFFSET 16.7317 0 0
												CHANNELS 3 Zrotation Xrotation Yrotation
												JOINT Model14
												{
													OFFSET 11.8292 0 0
													CHANNELS 3 Zrotation Xrotation Yrotation
													JOINT Model15
													{
														OFFSET 4.82751 -3.73566 -0.836517
														CHANNELS 3 Zrotation Xrotation Yrotation
														JOINT Model16
														{
															OFFSET 3.75311 -0.0582886 -0.0186462
															CHANNELS 3 Zrotation Xrotation Yrotation
															JOINT Model17
															{
																OFFSET 2.88689 0.0192337 0.014801
																CHANNELS 3 Zrotation Xrotation Yrotation
																End Site
																{
																	OFFSET 0 0 0
																}
															}
														}
													}
													JOINT Model18
													{
														OFFSET 9.72197 -3.06458 0.23877
														CHANNELS 3 Zrotation Xrotation Yrotation
														JOINT Model19
														{
															OFFSET 4.61131 0 0
															CHANNELS 3 Zrotation Xrotation Yrotation
															JOINT Model20
															{
																OFFSET 2.8969 -7.62939e-006 0
																CHANNELS 3 Zrotation Xrotation Yrotation
																End Site
																{
																	OFFSET 0 0 0
																}
															}
														}
													}
													JOINT Model21
													{
														OFFSET 9.54431 -0.745064 0.588928
														CHANNELS 3 Zrotation Xrotation Yrotation
														JOINT Model22
														{
															OFFSET 5.33978 0 0
															CHANNELS 3 Zrotation Xrotation Yrotation
															JOINT Model23
															{
																OFFSET 3.03619 7.62939e-006 0
																CHANNELS 3 Zrotation Xrotation Yrotation
																End Site
																{
																	OFFSET 0 0 0
																}
															}
														}
													}
													JOINT Model24
													{
														OFFSET 9.47758 1.51286 0.485107
														CHANNELS 3 Zrotation Xrotation Yrotation
														JOINT Model25
														{
															OFFSET 4.96136 7.62939e-006 0
															CHANNELS 3 Zrotation Xrotation Yrotation
															JOINT Model26
															{
																OFFSET 2.51965 0 0
																CHANNELS 3 Zrotation Xrotation Yrotation
																End Site
																{
																	OFFSET 0 0 0
																}
															}
														}
													}
													JOINT Model27
													{
														OFFSET 9.34247 3.34117 -0.239288
														CHANNELS 3 Zrotation Xrotation Yrotation
														JOINT Model28
														{
															OFFSET 3.28259 2.28882e-005 0
															CHANNELS 3 Zrotation Xrotation Yrotation
															JOINT Model29
															{
																OFFSET 2.1292 0 0
																CHANNELS 3 Zrotation Xrotation Yrotation
																End Site
																{
																	OFFSET 0 0 0
																}
															}
														}
													}
												}
											}
										}
									}
								}
							}
						}
					}
					JOINT Model30
					{
						OFFSET 10.8223 0.4179 -3.51108
						CHANNELS 3 Zrotation Xrotation Yrotation
						JOINT Model31
						{
							OFFSET 6.07944 0 0
							CHANNELS 3 Zrotation Xrotation Yrotation
							JOINT Model32
							{
								OFFSET 0.277405 -10.39 0.051239
								CHANNELS 3 Zrotation Xrotation Yrotation
								JOINT Model33
								{
									OFFSET 3.43909 0.282043 -1.86679
									CHANNELS 3 Zrotation Xrotation Yrotation
									JOINT Model34
									{
										OFFSET -13.0269 0 0
										CHANNELS 3 Zrotation Xrotation Yrotation
										JOINT Model35
										{
											OFFSET -10.8866 0 0
											CHANNELS 3 Zrotation Xrotation Yrotation
											JOINT Model36
											{
												OFFSET -16.7317 0 0
												CHANNELS 3 Zrotation Xrotation Yrotation
												JOINT Model37
												{
													OFFSET -11.8292 0 0
													CHANNELS 3 Zrotation Xrotation Yrotation
													JOINT Model38
													{
														OFFSET -4.82751 3.73566 0.836517
														CHANNELS 3 Zrotation Xrotation Yrotation
														JOINT Model39
														{
															OFFSET -3.75311 0.0582886 0.0186462
															CHANNELS 3 Zrotation Xrotation Yrotation
															JOINT Model40
															{
																OFFSET -2.88687 -0.0192337 -0.014801
																CHANNELS 3 Zrotation Xrotation Yrotation
																End Site
																{
																	OFFSET 0 0 0
																}
															}
														}
													}
													JOINT Model41
													{
														OFFSET -9.72198 3.06459 -0.23877
														CHANNELS 3 Zrotation Xrotation Yrotation
														JOINT Model42
														{
															OFFSET -4.6113 0 0
															CHANNELS 3 Zrotation Xrotation Yrotation
															JOINT Model43
															{
																OFFSET -2.89691 0 0
																CHANNELS 3 Zrotation Xrotation Yrotation
																End Site
																{
																	OFFSET 0 0 0
																}
															}
														}
													}
													JOINT Model44
													{
														OFFSET -9.54431 0.745064 -0.588928
														CHANNELS 3 Zrotation Xrotation Yrotation
														JOINT Model45
														{
															OFFSET -5.33978 0 0
															CHANNELS 3 Zrotation Xrotation Yrotation
															JOINT Model46
															{
																OFFSET -3.03619 -1.52588e-005 0
																CHANNELS 3 Zrotation Xrotation Yrotation
																End Site
																{
																	OFFSET 0 0 0
																}
															}
														}
													}
													JOINT Model47
													{
														OFFSET -9.4776 -1.51286 -0.485107
														CHANNELS 3 Zrotation Xrotation Yrotation
														JOINT Model48
														{
															OFFSET -4.96136 -1.52588e-005 0
															CHANNELS 3 Zrotation Xrotation Yrotation
															JOINT Model49
															{
																OFFSET -2.51965 0 0
																CHANNELS 3 Zrotation Xrotation Yrotation
																End Site
																{
																	OFFSET 0 0 0
																}
															}
														}
													}
													JOINT Model50
													{
														OFFSET -9.34247 -3.34118 0.239288
														CHANNELS 3 Zrotation Xrotation Yrotation
														JOINT Model51
														{
															OFFSET -3.28259 -2.28882e-005 0
															CHANNELS 3 Zrotation Xrotation Yrotation
															JOINT Model52
															{
																OFFSET -2.12921 0 0
																CHANNELS 3 Zrotation Xrotation Yrotation
																End Site
																{
																	OFFSET 0 0 0
																}
															}
														}
													}
												}
											}
										}
									}
								}
							}
						}
					}
				}
			}
		}
	}
	JOINT Model53
	{
		OFFSET 4.38025 -2.14632 -1.11517
		CHANNELS 3 Zrotation Xrotation Yrotation
		JOINT Model54
		{
			OFFSET 0 0 4.94998
			CHANNELS 3 Zrotation Xrotation Yrotation
			JOINT Model55
			{
				OFFSET 18.5642 0 0
				CHANNELS 3 Zrotation Xrotation Yrotation
				JOINT Model56
				{
					OFFSET 21.2884 0 0
					CHANNELS 3 Zrotation Xrotation Yrotation
					JOINT Model57
					{
						OFFSET 30.261 0 0
						CHANNELS 3 Zrotation Xrotation Yrotation
						JOINT Model58
						{
							OFFSET 11.7259 0 0
							CHANNELS 3 Zrotation Xrotation Yrotation
							JOINT Model59
							{
								OFFSET 10.682 0 0
								CHANNELS 3 Zrotation Xrotation Yrotation
								End Site
								{
									OFFSET 0 0 0
								}
							}
						}
					}
				}
			}
		}
	}
	JOINT Model60
	{
		OFFSET -4.38025 -2.14632 -1.11517
		CHANNELS 3 Zrotation Xrotation Yrotation
		JOINT Model61
		{
			OFFSET 0 0 -4.94998
			CHANNELS 3 Zrotation Xrotation Yrotation
			JOINT Model62
			{
				OFFSET -18.5642 0 0
				CHANNELS 3 Zrotation Xrotation Yrotation
				JOINT Model63
				{
					OFFSET -21.2884 0 0
					CHANNELS 3 Zrotation Xrotation Yrotation
					JOINT Model64
					{
						OFFSET -30.261 0 0
						CHANNELS 3 Zrotation Xrotation Yrotation
						JOINT Model65
						{
							OFFSET -11.7259 0 0
							CHANNELS 3 Zrotation Xrotation Yrotation
							JOINT Model66
							{
								OFFSET -10.682 0 0
								CHANNELS 3 Zrotation Xrotation Yrotation
								End Site
								{
									OFFSET 0 0 0
								}
							}
						}
					}
				}
			}
		}
	}
}
MOTION
Frames: 4
Frame Time: 0.033333
-332.245 171.756 -349.622 -83.7596 -60.782 -80.0855 -180 4.29621e-031 -90 1.00805 -0.191907 -1.52919 2.01061 -0.411052 -3.0548 2.01061 -0.410615 -3.05482 2.08195 7.44924 -0.546906 18.5887 7.23848 0.758906 120.092 75.5343 58.4939 -4.96464 2.10293 1.92708 -167.277 84.4999 48.8109 141.954 -6.24549 6.13533 4.66317e-006 10.7602 2.99887e-005 -11.5694 -6.77708 -3.41915 9.80166e-007 -10.3638 8.07095e-007 -17.158 0.806158 -5.33994 -72.0648 39.0385 39.3397 33.3638 2.10362 14.835 0.588947 0.308273 6.35287 -99.6409 81.413 100.35 -0.0181409 2.77887e-005 -0.117315 -0.124139 0.00241113 -0.799296 -79.8382 79.5773 80.5374 -0.000225763 -0.000220913 2.21947e-005 -0.000956208 0.000122908 -2.73204e-005 -66.7416 80.4058 67.2171 -0.000437119 1.59556e-005 -2.7321e-005 -0.000136586 -0.000109277 -5.46418e-005 -6.42159 81.2158 8.01779 -0.000218552 1.69118e-005 0.000212138 0.000901604 -0.000184797 -0.000218569 -59.9282 75.5373 58.5147 2.42236 6.59148 1.78245 -167.277 84.4999 48.8109 150.532 0.546539 9.12854 -4.27994e-006 21.1294 3.11867e-005 -124.631 -6.73611 0.504262 -3.83042e-006 -9.80719 1.84421e-006 1.93733 -0.47611 -27.6122 -72.0648 39.0385 39.3397 33.3638 2.10361 14.835 0.588946 0.308273 6.35287 -99.6409 81.413 100.35 -0.0181409 3.00782e-005 -0.117315 -0.124139 0.00241113 -0.799296 -79.8382 79.5773 80.5374 -0.000260645 -0.000218566 2.35706e-005 -0.000956224 0.000122996 -2.73205e-005 -66.7416 80.4058 67.2171 -0.000437131 1.48813e-005 -2.73206e-005 -0.000136602 -0.000109283 -5.46413e-005 -6.42159 81.2158 8.01779 -0.000218564 1.95788e-005 0.000212297 0.000901585 -0.000191245 -0.000218566 0.000811311 0.56661 89.91 -36.1768 -1.5687 -20.9407 5.91218e-007 4.61552 -4.84896e-009 34.7188 0.993264 0.129474 -1.37242e-007 1.42447 -1.55205e-007 -53.4998 -4.11064 2.55767 -35.4947 4.89898e-006 1.15162e-005 -180 -0.566579 -90.09 -15.2172 -6.76214 -10.5947 -6.39579e-007 -3.41484 -1.92831e-008 42.0644 -5.2547 1.26711 1.8009e-007 -7.96279 -5.05554e-007 -68.5333 -13.1971 6.09692 -38.1938 -0.121563 -0.189129 
-331.955 171.891 -349.522 -84.6382 -60.4298 -80.9271 -180 4.29621e-031 -90 0.941751 -0.277585 -1.36009 1.87666 -0.577843 -2.71548 1.87666 -0.577406 -2.71549 1.5893 7.68627 -1.64789 18.9626 7.27042 1.05371 120.092 75.5343 58.4939 -2.13567 2.79499 1.60207 -167.277 84.4999 48.8109 132.851 -8.41949 4.37467 6.72257e-006 6.85063 2.96732e-005 -21.0049 -1.68905 -3.07841 8.75139e-007 -2.89627 7.94943e-007 -19.3839 0.995101 -5.82162 -72.0648 39.0385 39.3397 33.3638 2.10362 14.835 0.588947 0.308273 6.35287 -99.6409 81.413 100.35 -0.0181409 2.77887e-005 -0.117315 -0.124139 0.00241113 -0.799296 -79.8382 79.5773 80.5374 -0.000225763 -0.000220913 2.21947e-005 -0.000956208 0.000122908 -2.73204e-005 -66.7416 80.4058 67.2171 -0.000437119 1.59556e-005 -2.7321e-005 -0.000136586 -0.000109277 -5.46418e-005 -6.42159 81.2158 8.01779 -0.000218552 1.69118e-005 0.000212138 0.000901604 -0.000184797 -0.000218569 -59.9282 75.5373 58.5147 2.29568 8.08097 2.23482 -167.277 84.4999 48.8109 151.282 0.858609 9.63573 -4.54191e-006 21.577 3.12821e-005 -124.099 -7.0859 0.507834 -3.81281e-006 -10.3453 1.84729e-006 1.85103 -0.441439 -26.8252 -72.0648 39.0385 39.3397 33.3638 2.10361 14.835 0.588946 0.308273 6.35287 -99.6409 81.413 100.35 -0.0181409 3.00782e-005 -0.117315 -0.124139 0.00241113 -0.799296 -79.8382 79.5773 80.5374 -0.000260645 -0.000218566 2.35706e-005 -0.000956224 0.000122996 -2.73205e-005 -66.7416 80.4058 67.2171 -0.000437131 1.48813e-005 -2.73206e-005 -0.000136602 -0.000109283 -5.46413e-005 -6.42159 81.2158 8.01779 -0.000218564 1.95788e-005 0.000212297 0.000901585 -0.000191245 -0.000218566 0.000811311 0.56661 89.91 -35.3413 -1.44199 -20.5484 5.91243e-007 4.91163 -4.85105e-009 34.4332 0.57376 0.0781368 -1.38945e-007 0.795768 -1.55172e-007 -53.4562 -4.1699 2.60413 -35.4947 4.97659e-006 1.1437e-005 -180 -0.566579 -90.09 -14.6576 -6.59484 -10.5401 -6.39475e-007 -3.10607 -1.92772e-008 41.3553 -5.37339 1.14286 1.78517e-007 -8.13927 -5.05774e-007 -68.1889 -13.0878 6.10067 -37.982 -0.34288 -0.165659 
-331.821 171.969 -349.444 -85.4109 -59.895 -81.6761 -180 4.29621e-031 -90 0.859563 -0.407276 -1.14366 1.71087 -0.832019 -2.28117 1.71087 -0.831582 -2.28119 1.30528 8.30868 -2.8614 18.9422 7.63728 1.19578 120.092 75.5343 58.4939 1.39466 4.3244 1.35355 -167.277 84.4999 48.8109 125.834 -12.1082 2.05707 1.01297e-005 0.257401 2.94617e-005 -30.3804 4.01102 0.30858 7.58241e-007 5.52035 7.97627e-007 -20.326 0.973738 -5.42799 -72.0648 39.0385 39.3397 33.3638 2.10362 14.835 0.588947 0.308273 6.35287 -99.6409 81.413 100.35 -0.0181409 2.77887e-005 -0.117315 -0.124139 0.00241113 -0.799296 -79.8382 79.5773 80.5374 -0.000225763 -0.000220913 2.21947e-005 -0.000956208 0.000122908 -2.73204e-005 -66.7416 80.4058 67.2171 -0.000437119 1.59556e-005 -2.7321e-005 -0.000136586 -0.000109277 -5.46418e-005 -6.42159 81.2158 8.01779 -0.000218552 1.69118e-005 0.000212138 0.000901604 -0.000184797 -0.000218569 -59.9282 75.5373 58.5147 2.4368 9.2706 2.53626 -167.277 84.4999 48.8109 150.358 1.2307 10.7078 -4.86635e-006 22.1274 3.14029e-005 -122.679 -7.4565 0.516618 -3.79338e-006 -10.9371 1.85088e-006 2.782 -0.649376 -26.273 -72.0648 39.0385 39.3397 33.3638 2.10361 14.835 0.588946 0.308273 6.35287 -99.6409 81.413 100.35 -0.0181409 3.00782e-005 -0.117315 -0.124139 0.00241113 -0.799296 -79.8382 79.5773 80.5374 -0.000260645 -0.000218566 2.35706e-005 -0.000956224 0.000122996 -2.73205e-005 -66.7416 80.4058 67.2171 -0.000437131 1.48813e-005 -2.73206e-005 -0.000136602 -0.000109283 -5.46413e-005 -6.42159 81.2158 8.01779 -0.000218564 1.95788e-005 0.000212297 0.000901585 -0.000191245 -0.000218566 0.000811311 0.56661 89.91 -34.7086 -1.58778 -20.4718 5.91237e-007 4.84644 -4.85057e-009 34.3514 0.353341 -0.0796409 -1.3984e-007 0.465299 -1.55162e-007 -53.5715 -4.14964 2.57871 -35.4947 5.04934e-006 1.13502e-005 -180 -0.566579 -90.09 -14.0827 -6.02873 -9.97284 -6.3928e-007 -2.52712 -1.92676e-008 40.6779 -5.68269 0.707959 1.74394e-007 -8.60113 -5.06374e-007 -68.2859 -13.258 6.17459 -37.4782 -0.475966 -0.120743 
-331.69 172.033 -349.335 -86.2841 -58.7611 -82.6966 -180 4.29621e-031 -90 0.776118 -0.52935 -0.866808 1.54423 -1.07077 -1.72648 1.54422 -1.07033 -1.72649 1.42245 9.42333 -5.26251 18.5623 8.29478 1.80132 120.092 75.5343 58.4939 4.34268 5.11109 0.948623 -167.277 84.4999 48.8109 120.288 -11.5709 -0.742212 1.0458e-005 -0.381158 2.9462e-005 -36.5013 3.4089 0.362748 7.71822e-007 4.54782 7.96436e-007 -20.2787 0.628928 -3.51571 -72.0648 39.0385 39.3397 33.3638 2.10362 14.835 0.588947 0.308273 6.35287 -99.6409 81.413 100.35 -0.0181409 2.77887e-005 -0.117315 -0.124139 0.00241113 -0.799296 -79.8382 79.5773 80.5374 -0.000225763 -0.000220913 2.21947e-005 -0.000956208 0.000122908 -2.73204e-005 -66.7416 80.4058 67.2171 -0.000437119 1.59556e-005 -2.7321e-005 -0.000136586 -0.000109277 -5.46418e-005 -6.42159 81.2158 8.01779 -0.000218552 1.69118e-005 0.000212138 0.000901604 -0.000184797 -0.000218569 -59.9282 75.5373 58.5147 3.50114 11.0398 2.74836 -167.277 84.4999 48.8109 148.29 1.54006 12.2845 -5.18305e-006 22.6607 3.15235e-005 -120.359 -7.60584 0.529811 -3.7841e-006 -11.2188 1.85266e-006 3.63843 -0.849247 -26.2685 -72.0648 39.0385 39.3397 33.3638 2.10361 14.835 0.588946 0.308273 6.35287 -99.6409 81.413 100.35 -0.0181409 3.00782e-005 -0.117315 -0.124139 0.00241113 -0.799296 -79.8382 79.5773 80.5374 -0.000260645 -0.000218566 2.35706e-005 -0.000956224 0.000122996 -2.73205e-005 -66.7416 80.4058 67.2171 -0.000437131 1.48813e-005 -2.73206e-005 -0.000136602 -0.000109283 -5.46413e-005 -6.42159 81.2158 8.01779 -0.000218564 1.95788e-005 0.000212297 0.000901585 -0.000191245 -0.000218566 0.000811311 0.56661 89.91 -33.8845 -1.99023 -20.5535 5.91208e-007 4.50824 -4.84823e-009 34.3009 0.0968117 -0.216442 -1.40882e-007 0.0806027 -1.55157e-007 -53.8089 -4.20567 2.596 -35.4947 5.117e-006 1.12557e-005 -180 -0.566579 -90.09 -13.6548 -5.53812 -9.64143 -6.39082e-007 -1.93895 -1.92599e-008 39.977 -5.74913 0.137546 1.73519e-007 -8.69901 -5.06506e-007 -68.6778 -13.2089 6.07703 -36.7967 -0.679781 -0.054864 
